<?xml version="1.0" encoding="UTF-8" standalone="no"?>
<!-- Created with Inkscape (http://www.inkscape.org/) -->
<svg xmlns:svg="http://www.w3.org/2000/svg" xmlns="http://www.w3.org/2000/svg" xmlns:dc="http://purl.org/dc/elements/1.1/" xmlns:cc="http://web.resource.org/cc/" xmlns:rdf="http://www.w3.org/1999/02/22-rdf-syntax-ns#" version="1.0" width="300" height="300" id="svg9226">
  <defs id="defs3"/>
  <g id="layer1">
    <g transform="matrix(0.5,0,0,0.5,-265.0816,-44.32091)" id="g9196">
      <path d="M 661.45498,324.5614 C 661.45498,324.5614 676.95498,339.3114 678.45498,351.5614 C 679.95498,363.8114 682.95498,365.3114 682.95498,365.3114 C 682.95498,365.3114 687.20498,385.0614 693.45498,387.3114 C 693.45498,387.3114 695.45498,403.3114 701.95498,409.5614 C 701.95498,409.5614 700.95498,415.8114 712.45498,424.5614 C 712.45498,424.5614 720.20498,435.0614 725.70498,434.5614 C 725.70498,434.5614 730.45498,453.5614 734.70498,460.0614 C 738.95498,466.5614 740.20498,470.3114 739.70498,485.8114 C 739.70498,485.8114 742.70498,510.8114 727.20498,526.0614 C 727.20498,526.0614 718.20498,535.5614 723.95498,537.0614 C 729.70498,538.5614 735.45498,538.8114 735.45498,538.8114 C 735.45498,538.8114 737.45498,538.0614 736.45498,540.0614 C 735.45498,542.0614 731.70498,548.8114 740.20498,549.0614 C 748.70498,549.3114 764.20498,547.5614 764.20498,547.5614 C 764.20498,547.5614 768.45498,546.3114 769.20498,543.0614 C 769.95498,539.8114 771.70498,533.0614 771.70498,533.0614 C 771.70498,533.0614 777.45498,534.0614 777.45498,523.0614 C 777.45498,512.0614 776.20498,477.3114 782.70498,453.0614 C 789.20498,428.8114 785.95498,426.8114 785.95498,426.8114 C 785.95498,426.8114 798.95498,419.5614 827.95498,422.0614 C 827.95498,422.0614 837.70498,425.8114 874.45498,430.3114 C 874.45498,430.3114 881.95498,436.8114 889.20498,438.5614 C 889.20498,438.5614 896.20498,450.3114 904.45498,440.0614 C 904.45498,440.0614 906.95498,437.8114 913.70498,435.5614 C 913.70498,435.5614 920.95498,435.3114 928.45498,427.0614 C 928.45498,427.0614 931.20498,423.5614 941.20498,421.3114 C 951.20498,419.0614 969.45498,411.5614 969.45498,411.5614 C 969.45498,411.5614 978.95498,443.5614 985.95498,454.8114 L 986.76752,493.66991 C 986.76752,493.66991 985.70686,508.51916 976.86802,522.30774 C 968.02919,536.09632 968.02919,536.09632 968.02919,536.09632 C 968.02919,536.09632 970.85761,539.2783 980.58033,539.45508 C 990.30305,539.63185 998.08122,539.45508 998.08122,539.45508 C 998.08122,539.45508 1000.0258,539.18991 1001.6168,529.20203 L 1006.3897,526.02005 C 1006.3897,526.02005 1008.3343,524.78261 1008.511,520.53997 C 1008.6878,516.29733 1007.0968,491.72537 1013.8143,483.77042 C 1013.8143,483.77042 1016.466,491.72537 1014.6982,504.09974 C 1012.9305,516.47411 1012.2234,522.83807 1012.5769,529.02525 C 1012.5769,529.02525 1012.9305,533.62145 1003.3845,542.99061 C 1003.3845,542.99061 997.37412,549.1778 1002.6774,551.12234 C 1007.9807,553.06688 1021.7693,554.65787 1030.0778,550.94556 C 1038.3863,547.23325 1039.0934,536.80343 1039.0934,536.80343 C 1039.0934,536.80343 1042.8057,537.51053 1042.9825,533.26789 C 1043.1593,529.02525 1040.8612,529.90914 1041.9218,511.87791 C 1042.9825,493.84669 1047.7555,459.90556 1047.7555,459.90556 C 1047.7555,459.90556 1050.2303,452.30417 1046.3413,444.17244 C 1042.4522,436.04071 1039.0934,431.26774 1043.8664,415.00428 C 1043.8664,415.00428 1053.5891,391.31621 1062.9583,374.6992 C 1062.9583,374.6992 1064.0189,385.12902 1060.1298,398.56405 C 1060.1298,398.56405 1056.7711,426.84832 1060.3066,435.15683 C 1060.3066,435.15683 1061.0137,454.42549 1065.2564,460.25912 C 1065.2564,460.25912 1065.0796,473.69415 1071.7971,476.69935 C 1071.7971,476.69935 1072.3274,466.79986 1075.3326,459.72879 C 1078.3378,452.65772 1077.9843,447.35442 1078.1611,446.64731 C 1078.3378,445.94021 1082.4037,438.69236 1081.6966,430.73741 C 1080.9895,422.78246 1080.2824,422.60568 1080.4592,415.53461 C 1080.6359,408.46355 1078.3378,406.87256 1078.3378,400.68537 C 1078.3378,394.49819 1074.4488,391.13943 1074.6255,383.18448 C 1074.8023,375.22953 1072.681,317.24677 1072.681,317.24677 C 1072.681,317.24677 1071.09,279.063 1050.5839,262.79955 C 1050.5839,262.79955 1040.1541,253.78394 1025.4816,255.72848 C 1025.4816,255.72848 1017.3499,258.73368 1005.1523,258.20335 C 992.9547,257.67302 937.62359,259.26402 900.85404,264.39054 C 900.85404,264.39054 870.802,268.98673 831.55758,264.92087 C 831.55758,264.92087 804.15719,263.1531 767.56441,261.56211 C 767.56441,261.56211 751.65451,261.03178 727.96643,251.30906 C 704.27836,241.58635 684.83292,234.86883 676.34764,235.39916 C 667.86236,235.92949 656.01832,227.97454 656.01832,227.97454 C 656.01832,227.97454 638.6942,219.48926 632.86057,227.62099 C 627.02694,235.75271 628.44115,239.99536 622.25397,244.76833 C 616.06679,249.5413 611.47059,253.78394 609.34927,261.38534 C 609.34927,261.38534 609.8796,263.68343 606.34407,265.62798 C 602.80853,267.57252 595.56069,273.22937 595.56069,273.22937 C 595.56069,273.22937 593.08582,276.94168 587.07541,279.59334 C 581.065,282.24499 575.7617,286.84118 580.18112,292.85159 C 580.18112,292.85159 580.88822,309.64537 591.14127,309.29182 C 591.14127,309.29182 596.44457,320.25198 606.52084,315.30223 C 606.52084,315.30223 610.94026,312.29702 616.24356,315.30223 C 621.54686,318.30743 634.09801,317.95388 634.09801,317.95388 C 634.09801,317.95388 636.04255,325.02495 661.45498,324.5614 z " style="fill:#80684e;fill-opacity:1;fill-rule:evenodd;stroke:black;stroke-width:1px;stroke-linecap:butt;stroke-linejoin:miter;stroke-opacity:1" id="path4698"/>
      <path d="M 823.0723,281.53788 C 823.0723,281.53788 895,285.5 971,272 C 971,272 983.5,270.5 1006.5,269 C 1006.5,269 1026.5,265.5 1019.5,281.5 C 1019.5,281.5 1054,311.5 1023,396.5 C 1023,396.5 1018.25,404.5 1021,418.5 C 1021,418.5 1029.5,444 1007,434.5 C 1007,434.5 994.75,429.25 989,415 C 989,415 983.25,403 968,394 C 968,394 925.5,407.25 881.5,408.25 C 881.5,408.25 821.5,408.25 775.5,414.75 C 775.5,414.75 773.5,432.25 767.75,442 C 762,451.75 755.25,450.75 750.5,445 C 745.75,439.25 742,430.5 740,417.75 C 740,417.75 715.75,413.75 701.5,373.75 C 701.5,373.75 694.5,333.75 693.75,301 C 693,268.25 693.75,268.5 693.75,268.5 C 693.75,268.5 694.25,255 705.5,259.75 C 716.75,264.5 752.75,276 752.75,276 C 752.75,276 767.75,280.5 785.75,281 C 803.75,281.5 823,282 823.0723,281.53788 z " style="fill:none;fill-rule:evenodd;stroke:#c8beb7;stroke-width:2;stroke-linecap:butt;stroke-linejoin:miter;stroke-miterlimit:4;stroke-dasharray:none;stroke-opacity:1" id="path5585"/>
      <path d="M 770.65801,279.94689 C 770.65801,279.94689 776.04969,289.31605 776.04969,317.95388 C 776.04969,346.5917 775.69614,370.63333 775.69614,370.63333 L 701.09638,372.75465 C 701.09638,372.75465 691.37366,302.04397 693.67175,276.0578 C 693.67175,276.0578 691.72721,254.49104 705.33902,259.61757 C 718.95082,264.74409 740.3408,272.69904 757.13459,277.11846 L 770.65801,279.94689 z " style="fill:#a4753f;fill-opacity:1;fill-rule:evenodd;stroke:#c8beb7;stroke-width:2;stroke-linecap:butt;stroke-linejoin:miter;stroke-miterlimit:4;stroke-dasharray:none;stroke-opacity:1" id="path5587"/>
      <path d="M 840.92674,282.42176 C 840.92674,282.42176 844.10872,298.68522 847.64426,303.45819 C 851.17979,308.23116 840.92674,363.91582 840.74997,370.103 L 775.51936,370.63333 L 775.51936,414.65073 C 775.51936,414.65073 843.75517,407.22611 888.47967,407.93321 C 888.47967,407.93321 932.67385,404.39768 951.58895,398.03372 L 968.20596,393.96786 C 968.20596,393.96786 985.3533,406.87255 988.53528,413.76685 C 988.53528,413.76685 994.54569,428.79286 1004.7987,433.21228 C 1015.0518,437.6317 1020.3551,437.98525 1022.4764,430.20708 C 1022.4764,430.20708 1023.0067,426.75993 1021.4157,420.9263 C 1019.8248,415.09267 1019.7364,410.14292 1020.1783,405.90028 C 1020.6203,401.65764 1024.0674,393.34914 1024.0674,393.34914 L 1029.1939,377.08568 L 1032.7295,362.76677 C 1032.7295,362.76677 1035.2927,348.8898 1035.4695,342.0839 C 1035.6463,335.27799 1034.9392,316.80483 1034.674,314.86028 C 1034.4088,312.91574 1031.6688,301.95559 1027.6913,293.38192 C 1023.7138,284.80825 1019.4712,281.44949 1019.4712,281.44949 C 1019.4712,281.44949 1026.1887,269.42867 1010.9859,268.63318 L 985.88363,270.66611 C 985.88363,270.66611 965.02398,272.43388 960.42779,273.67131 L 950.88185,274.99714 C 950.88185,274.99714 962,293.5 960,341 C 960,341 961,370 952.75,386 C 952.75,386 934.75,375.25 894,372.25 C 894,372.25 900.75,363.75 900.75,342.5 C 900.75,321.25 901.75,297.75 892,280.75 C 892,280.75 860.625,283 840.625,281.75" style="fill:#a4753f;fill-opacity:1;fill-rule:evenodd;stroke:#c8beb7;stroke-width:2;stroke-linecap:butt;stroke-linejoin:miter;stroke-miterlimit:4;stroke-dasharray:none;stroke-opacity:1" id="path5589"/>
      <path d="M 840.75,370.125 C 840.75,370.125 881.625,371.375 895.625,372.375" style="fill:none;fill-rule:evenodd;stroke:#c8beb7;stroke-width:2;stroke-linecap:butt;stroke-linejoin:miter;stroke-miterlimit:4;stroke-dasharray:none;stroke-opacity:1" id="path7361"/>
      <path d="M 953.60938,386.5 C 953.60938,386.5 964.98437,391.74219 967.92187,393.74219" style="fill:none;fill-rule:evenodd;stroke:#c8beb7;stroke-width:2;stroke-linecap:butt;stroke-linejoin:miter;stroke-miterlimit:4;stroke-dasharray:none;stroke-opacity:1" id="path8248"/>
      <path d="M 734.65625,310.38851 C 728.99657,310.38851 724.40625,314.97883 724.40625,320.63851 C 724.40625,326.29819 728.99657,330.88851 734.65625,330.88851 C 740.31593,330.88851 744.90625,326.29819 744.90625,320.63851 C 744.90625,314.97883 740.31593,310.38851 734.65625,310.38851 z M 733.96875,314.79476 L 735.5625,314.79476 L 735.5625,325.13851 L 737.96875,325.13851 L 737.96875,326.45101 L 731.53125,326.45101 L 731.53125,325.13851 L 734,325.13851 L 734,316.23226 L 731.34375,316.82601 L 731.34375,315.38851 L 733.96875,314.79476 z " style="opacity:1;color:black;fill:#c8beb7;fill-opacity:1;fill-rule:evenodd;stroke:none;stroke-width:2;stroke-linecap:square;stroke-linejoin:miter;marker:none;marker-start:none;marker-mid:none;marker-end:none;stroke-miterlimit:4;stroke-dasharray:none;stroke-dashoffset:0;stroke-opacity:1;visibility:visible;display:inline;overflow:visible" id="path9136"/>
      <path d="M 812.65625,310.38851 C 806.99657,310.38851 802.40625,314.97883 802.40625,320.63851 C 802.40625,326.29819 806.99657,330.88851 812.65625,330.88851 C 818.31593,330.88851 822.90625,326.29819 822.90625,320.63851 C 822.90625,314.97883 818.31593,310.38851 812.65625,310.38851 z M 812.34375,314.70101 C 813.48437,314.70102 814.40104,314.9979 815.09375,315.60726 C 815.79166,316.21144 816.12499,316.99789 816.125,317.98226 C 816.12499,318.48227 816.01562,318.98227 815.78125,319.48226 C 815.55208,319.98227 815.17708,320.53435 814.65625,321.13851 C 814.36458,321.47706 813.93229,321.94581 813.375,322.54476 C 812.82291,323.14372 811.97916,324.03955 810.84375,325.23226 L 816.21875,325.23226 L 816.21875,326.57601 L 809.125,326.57601 L 809.125,325.23226 C 810.09896,324.20622 810.95833,323.29997 811.6875,322.51351 C 812.41666,321.72706 812.91145,321.18018 813.1875,320.85726 C 813.70833,320.22185 814.0677,319.71664 814.25,319.32601 C 814.43229,318.93018 814.49999,318.51873 814.5,318.10726 C 814.49999,317.45623 814.32291,316.94581 813.9375,316.57601 C 813.55729,316.20623 813.04166,316.01352 812.375,316.01351 C 811.90104,316.01352 811.39583,316.09165 810.875,316.26351 C 810.35416,316.4354 809.80208,316.69581 809.21875,317.04476 L 809.21875,315.45101 C 809.75521,315.19581 810.26562,315.01873 810.78125,314.88851 C 811.30208,314.75831 811.83854,314.70102 812.34375,314.70101 z " style="opacity:1;color:black;fill:#c8beb7;fill-opacity:1;fill-rule:evenodd;stroke:none;stroke-width:2;stroke-linecap:square;stroke-linejoin:miter;marker:none;marker-start:none;marker-mid:none;marker-end:none;stroke-miterlimit:4;stroke-dasharray:none;stroke-dashoffset:0;stroke-opacity:1;visibility:visible;display:inline;overflow:visible" id="path9142"/>
      <path d="M 872.65625,310.38851 C 866.99657,310.38851 862.40625,314.97883 862.40625,320.63851 C 862.40625,326.29819 866.99657,330.88851 872.65625,330.88851 C 878.31593,330.88851 882.90625,326.29819 882.90625,320.63851 C 882.90625,314.97883 878.31593,310.38851 872.65625,310.38851 z M 872.3125,314.57601 C 873.44791,314.57602 874.35416,314.8781 875.03125,315.45101 C 875.71353,316.01873 876.06249,316.75831 876.0625,317.70101 C 876.06249,318.34164 875.89062,318.86768 875.53125,319.29476 C 875.17708,319.72185 874.65103,320.02393 873.96875,320.20101 C 874.73437,320.40414 875.31249,320.77393 875.71875,321.29476 C 876.12499,321.81039 876.34374,322.45622 876.34375,323.23226 C 876.34374,324.30518 875.97395,325.14893 875.25,325.76351 C 874.53124,326.37289 873.52604,326.66976 872.25,326.66976 C 871.71354,326.66976 871.18229,326.64372 870.625,326.54476 C 870.06771,326.4458 869.50521,326.29476 868.96875,326.10726 L 868.96875,324.54476 C 869.5,324.8208 870.04687,325.00309 870.5625,325.13851 C 871.07812,325.27393 871.58333,325.35726 872.09375,325.35726 C 872.95833,325.35726 873.6302,325.15414 874.09375,324.76351 C 874.55729,324.37289 874.78124,323.81039 874.78125,323.07601 C 874.78124,322.39893 874.55729,321.8781 874.09375,321.48226 C 873.6302,321.08122 872.97916,320.85727 872.1875,320.85726 L 871,320.85726 L 871,319.57601 L 872.1875,319.57601 C 872.91145,319.57602 873.49999,319.42498 873.90625,319.10726 C 874.31249,318.78956 874.49999,318.33123 874.5,317.76351 C 874.49999,317.16456 874.3177,316.70623 873.9375,316.38851 C 873.56249,316.0656 873.01041,315.91977 872.3125,315.91976 C 871.84895,315.91977 871.36979,315.97185 870.875,316.07601 C 870.38021,316.18019 869.88541,316.33644 869.34375,316.54476 L 869.34375,315.07601 C 869.97396,314.90935 870.51041,314.78436 871,314.70101 C 871.49479,314.61769 871.93229,314.57602 872.3125,314.57601 z " style="opacity:1;color:black;fill:#c8beb7;fill-opacity:1;fill-rule:evenodd;stroke:none;stroke-width:2;stroke-linecap:square;stroke-linejoin:miter;marker:none;marker-start:none;marker-mid:none;marker-end:none;stroke-miterlimit:4;stroke-dasharray:none;stroke-dashoffset:0;stroke-opacity:1;visibility:visible;display:inline;overflow:visible" id="path9144"/>
      <path d="M 994.98929,310.38851 C 989.32961,310.38851 984.73929,314.97883 984.73929,320.63851 C 984.73929,326.29819 989.32961,330.88851 994.98929,330.88851 C 1000.649,330.88851 1005.2393,326.29819 1005.2393,320.63851 C 1005.2393,314.97883 1000.649,310.38851 994.98929,310.38851 z M 991.86429,314.66976 L 997.77054,314.66976 L 997.77054,316.01351 L 993.30179,316.01351 L 993.30179,318.88851 C 993.52575,318.80518 993.76533,318.73748 993.98929,318.70101 C 994.21845,318.65935 994.44762,318.63852 994.67679,318.63851 C 995.88512,318.63852 996.84345,318.98748 997.55179,319.70101 C 998.26012,320.41456 998.61428,321.38851 998.61429,322.60726 C 998.61428,323.83643 998.23407,324.80518 997.48929,325.51351 C 996.7497,326.22184 995.74449,326.57601 994.45804,326.57601 C 993.83824,326.57601 993.25491,326.53434 992.73929,326.45101 C 992.22887,326.36768 991.77054,326.24268 991.36429,326.07601 L 991.36429,324.48226 C 991.84346,324.74268 992.34866,324.91455 992.83304,325.04476 C 993.31741,325.16976 993.79658,325.23226 994.30179,325.23226 C 995.17158,325.23226 995.83303,325.00309 996.30179,324.54476 C 996.77574,324.08643 997.02053,323.45101 997.02054,322.60726 C 997.02053,321.77393 996.79137,321.13331 996.30179,320.66976 C 995.81741,320.20622 995.14033,319.95102 994.27054,319.95101 C 993.84866,319.95102 993.42158,320.00831 993.02054,320.10726 C 992.6195,320.20102 992.22887,320.35206 991.86429,320.54476 L 991.86429,314.66976 z " style="opacity:1;color:black;fill:#c8beb7;fill-opacity:1;fill-rule:evenodd;stroke:none;stroke-width:2;stroke-linecap:square;stroke-linejoin:miter;marker:none;marker-start:none;marker-mid:none;marker-end:none;stroke-miterlimit:4;stroke-dasharray:none;stroke-dashoffset:0;stroke-opacity:1;visibility:visible;display:inline;overflow:visible" id="path9146"/>
      <path d="M 928.11924,310.38851 C 922.45956,310.38851 917.86924,314.97883 917.86924,320.63851 C 917.86924,326.29819 922.45956,330.88851 928.11924,330.88851 C 933.77892,330.88851 938.36924,326.29819 938.36924,320.63851 C 938.36924,314.97883 933.77892,310.38851 928.11924,310.38851 z M 928.77549,314.79476 L 930.61924,314.79476 L 930.61924,322.38851 L 932.15049,322.38851 L 932.15049,323.66976 L 930.61924,323.66976 L 930.61924,326.45101 L 929.02549,326.45101 L 929.02549,323.66976 L 924.08799,323.66976 L 924.08799,322.20101 L 928.77549,314.79476 z M 929.02549,316.23226 L 925.36924,322.38851 L 929.02549,322.38851 L 929.02549,316.23226 z " style="opacity:1;color:black;fill:#c8beb7;fill-opacity:1;fill-rule:evenodd;stroke:none;stroke-width:2;stroke-linecap:square;stroke-linejoin:miter;marker:none;marker-start:none;marker-mid:none;marker-end:none;stroke-miterlimit:4;stroke-dasharray:none;stroke-dashoffset:0;stroke-opacity:1;visibility:visible;display:inline;overflow:visible" id="path9148"/>
      <path d="M 834.87468,381.38552 C 829.21503,381.38553 824.62468,385.97584 824.62468,391.63552 C 824.62471,397.29521 829.215,401.88552 834.87468,401.88552 C 840.53439,401.88553 845.12468,397.2952 845.12468,391.63552 C 845.12471,385.97585 840.53436,381.38552 834.87468,381.38552 z M 831.21843,385.82302 L 838.56218,385.82302 L 838.56218,386.47927 L 834.37468,397.47927 L 832.74968,397.47927 L 836.81218,387.13552 L 831.21843,387.13552 L 831.21843,385.82302 z " style="opacity:1;color:black;fill:#c8beb7;fill-opacity:1;fill-rule:evenodd;stroke:none;stroke-width:2;stroke-linecap:square;stroke-linejoin:miter;marker:none;marker-start:none;marker-mid:none;marker-end:none;stroke-miterlimit:4;stroke-dasharray:none;stroke-dashoffset:0;stroke-opacity:1;visibility:visible;display:inline;overflow:visible" id="path9150"/>
      <path d="M 748.65625,381.38553 C 742.99657,381.38553 738.40625,385.97585 738.40625,391.63553 C 738.40625,397.29521 742.99657,401.88553 748.65625,401.88553 C 754.31593,401.88553 758.90625,397.29521 758.90625,391.63553 C 758.90625,385.97585 754.31593,381.38553 748.65625,381.38553 z M 749.3125,385.57303 C 749.69791,385.57304 750.08333,385.61471 750.46875,385.69803 C 750.85416,385.77617 751.23437,385.89075 751.59375,386.04178 L 751.59375,387.51053 C 751.26562,387.31783 750.90103,387.172 750.53125,387.07303 C 750.16145,386.96887 749.77604,386.91679 749.375,386.91678 C 748.375,386.91679 747.64062,387.28658 747.125,388.04178 C 746.60937,388.79179 746.34375,389.89075 746.34375,391.35428 C 746.59375,390.83345 746.93229,390.44283 747.375,390.16678 C 747.8177,389.88554 748.33333,389.72929 748.90625,389.72928 C 750.03124,389.72929 750.88541,390.09908 751.5,390.79178 C 752.11978,391.47929 752.43749,392.43241 752.4375,393.69803 C 752.43749,394.95845 752.13541,395.94282 751.5,396.63553 C 750.86458,397.32824 749.96354,397.66678 748.8125,397.66678 C 747.45833,397.66678 746.47396,397.19803 745.84375,396.22928 C 745.21354,395.25532 744.875,393.72408 744.875,391.63553 C 744.875,389.66679 745.27604,388.16679 746.03125,387.13553 C 746.79166,386.09908 747.875,385.57304 749.3125,385.57303 z M 748.78125,390.97928 C 748.10937,390.97929 747.57291,391.21366 747.1875,391.69803 C 746.80208,392.18241 746.625,392.84387 746.625,393.69803 C 746.625,394.5522 746.80208,395.24491 747.1875,395.72928 C 747.57291,396.21366 748.10937,396.44803 748.78125,396.44803 C 749.47916,396.44803 749.98958,396.21886 750.34375,395.76053 C 750.69791,395.29699 750.87499,394.59907 750.875,393.69803 C 750.87499,392.79178 750.69791,392.12512 750.34375,391.66678 C 749.98958,391.20845 749.47916,390.97929 748.78125,390.97928 z " style="opacity:1;color:black;fill:#c8beb7;fill-opacity:1;fill-rule:evenodd;stroke:none;stroke-width:2;stroke-linecap:square;stroke-linejoin:miter;marker:none;marker-start:none;marker-mid:none;marker-end:none;stroke-miterlimit:4;stroke-dasharray:none;stroke-dashoffset:0;stroke-opacity:1;visibility:visible;display:inline;overflow:visible" id="path9152"/>
    </g>
  </g>
  <metadata>
    <rdf:RDF>
      <cc:Work>
        <dc:format>image/svg+xml</dc:format>
        <dc:type rdf:resource="http://purl.org/dc/dcmitype/StillImage"/>
        <cc:license rdf:resource="http://creativecommons.org/licenses/publicdomain/"/>
        <dc:publisher>
          <cc:Agent rdf:about="http://openclipart.org/">
            <dc:title>Open Clip Art Library</dc:title>
          </cc:Agent>
        </dc:publisher>
        <dc:title>Beef Chart</dc:title>
        <dc:date>2006-10-26T04:38:30</dc:date>
        <dc:description>This is a Angus Beef Cutting Chart taken from http://www.heartlandsteaks.com/beef-chart.php and converted to the SVG-Format with site permission.</dc:description>
        <dc:source>http://openclipart.org/detail/906/beef-chart-by-flomar</dc:source>
        <dc:creator>
          <cc:Agent>
            <dc:title>flomar</dc:title>
          </cc:Agent>
        </dc:creator>
        <dc:subject>
          <rdf:Bag>
            <rdf:li>media</rdf:li>
            <rdf:li>clip art</rdf:li>
            <rdf:li>public domain</rdf:li>
            <rdf:li>image</rdf:li>
            <rdf:li>png</rdf:li>
            <rdf:li>svg</rdf:li>
            <rdf:li>animal</rdf:li>
            <rdf:li>food</rdf:li>
            <rdf:li>cow</rdf:li>
            <rdf:li>beef</rdf:li>
            <rdf:li>meat</rdf:li>
            <rdf:li>bovine</rdf:li>
            <rdf:li>animal</rdf:li>
            <rdf:li>food</rdf:li>
            <rdf:li>cow</rdf:li>
            <rdf:li>beef</rdf:li>
            <rdf:li>meat</rdf:li>
            <rdf:li>bovine</rdf:li>
          </rdf:Bag>
        </dc:subject>
      </cc:Work>
      <cc:License rdf:about="http://creativecommons.org/licenses/publicdomain/">
        <cc:permits rdf:resource="http://creativecommons.org/ns#Reproduction"/>
        <cc:permits rdf:resource="http://creativecommons.org/ns#Distribution"/>
        <cc:permits rdf:resource="http://creativecommons.org/ns#DerivativeWorks"/>
      </cc:License>
    </rdf:RDF>
  </metadata>
</svg>
